<?xml version="1.0" encoding="UTF-8" standalone="no"?>
<svg width="42px" height="42px" viewBox="0 0 42 42" version="1.1" xmlns="http://www.w3.org/2000/svg" xmlns:xlink="http://www.w3.org/1999/xlink">
    <!-- Generator: Sketch 41.1 (35376) - http://www.bohemiancoding.com/sketch -->
    <title>Group 14</title>
    <desc>Created with Sketch.</desc>
    <defs></defs>
    <g id="Page-1" stroke="none" stroke-width="1" fill="none" fill-rule="evenodd">
        <g id="Group-14">
            <circle id="Oval-5" fill="#FFFFFF" cx="21" cy="21" r="21"></circle>
            <g id="Group-12" transform="translate(13.000000, 13.000000)" fill="#333333">
                <path d="M8.05555556,2.02097952 C6.94489583,2.02097952 6.04166667,2.92003754 6.04166667,4.02780546 C6.04166667,5.13456997 6.94489583,6.0346314 8.05555556,6.0346314 C9.16621528,6.0346314 10.0694444,5.13456997 10.0694444,4.02780546 C10.0694444,2.92003754 9.16621528,2.02097952 8.05555556,2.02097952 M8.05555556,8.04145734 C5.83423611,8.04145734 4.02777778,6.24133447 4.02777778,4.02780546 C4.02777778,1.81427645 5.83423611,0.0141535836 8.05555556,0.0141535836 C10.276875,0.0141535836 12.0833333,1.81427645 12.0833333,4.02780546 C12.0833333,6.24133447 10.276875,8.04145734 8.05555556,8.04145734" id="Fill-297"></path>
                <path d="M2.17369097,14.0619352 L13.9378229,14.0619352 C13.3346632,12.2477645 11.0841424,11.0516962 8.05525347,11.0516962 C5.02636458,11.0516962 2.77584375,12.2477645 2.17369097,14.0619352 L2.17369097,14.0619352 Z M16.110809,16.0687611 L-0.000302083333,16.0687611 L-0.000302083333,15.0653481 C-0.000302083333,11.5202901 3.31254514,9.04487031 8.05525347,9.04487031 C12.7989687,9.04487031 16.110809,11.5202901 16.110809,15.0653481 L16.110809,16.0687611 Z" id="Fill-298"></path>
            </g>
        </g>
    </g>
</svg>