<?xml version="1.0" encoding="UTF-8" standalone="no"?>
<svg width="15px" height="21px" viewBox="0 0 15 21" version="1.1" xmlns="http://www.w3.org/2000/svg" xmlns:xlink="http://www.w3.org/1999/xlink">
    <!-- Generator: Sketch 41.1 (35376) - http://www.bohemiancoding.com/sketch -->
    <title>Fill 361 + Fill 362</title>
    <desc>Created with Sketch.</desc>
    <defs></defs>
    <g id="Page-1" stroke="none" stroke-width="1" fill="none" fill-rule="evenodd">
        <g id="Line-Icons" transform="translate(-115.000000, -289.000000)" fill="#FFFFFF">
            <g id="Fill-361-+-Fill-362" transform="translate(115.798611, 289.849829)">
                <path d="M2.01539931,18.0619352 L2.01539931,5.01756655 L4.02928819,5.01756655 C4.58512153,5.01756655 5.03623264,4.56803754 5.03623264,4.01415358 L5.03623264,2.00732765 L9.06401042,2.00732765 L9.06401042,4.01415358 C9.06401042,4.56803754 9.51512153,5.01756655 10.0709549,5.01756655 L12.0848438,5.01756655 L12.0858507,18.0619352 L2.01539931,18.0619352 Z M13.0917882,3.01074061 L11.0778993,3.01074061 L11.0778993,1.00391468 C11.0778993,0.450030717 10.6267882,0.000501706484 10.0709549,0.000501706484 L4.02928819,0.000501706484 C3.47345486,0.000501706484 3.02234375,0.450030717 3.02234375,1.00391468 L3.02234375,3.01074061 L1.00845486,3.01074061 C0.452621528,3.01074061 0.00151041667,3.46026962 0.00151041667,4.01415358 L0.00151041667,18.0619352 C0.00151041667,19.1686997 0.904739583,20.0687611 2.01539931,20.0687611 L12.0848438,20.0687611 C13.1955035,20.0687611 14.0987326,19.1686997 14.0987326,18.0619352 L14.0987326,4.01415358 C14.0987326,3.46026962 13.6476215,3.01074061 13.0917882,3.01074061 L13.0917882,3.01074061 Z" id="Fill-361"></path>
                <polygon id="Fill-362" points="8.05706597 6.02097952 3.02234375 12.0414573 6.04317708 12.0414573 6.04317708 16.0551092 11.0778993 10.0346314 8.05706597 10.0346314"></polygon>
            </g>
        </g>
    </g>
</svg>