<?xml version="1.0" encoding="UTF-8" standalone="no"?>
<svg width="204px" height="43px" viewBox="0 0 204 43" version="1.1" xmlns="http://www.w3.org/2000/svg" xmlns:xlink="http://www.w3.org/1999/xlink">
    <!-- Generator: Sketch 41.1 (35376) - http://www.bohemiancoding.com/sketch -->
    <title>Group</title>
    <desc>Created with Sketch.</desc>
    <defs>
        <linearGradient x1="-32.8394745%" y1="-246.523145%" x2="62.7829265%" y2="50%" id="linearGradient-1">
            <stop stop-color="#333333" offset="0%"></stop>
            <stop stop-color="#00DA56" offset="100%"></stop>
        </linearGradient>
    </defs>
    <g id="Page-1" stroke="none" stroke-width="1" fill="none" fill-rule="evenodd">
        <g id="A4" transform="translate(-126.000000, -430.000000)">
            <g id="Group" transform="translate(126.000000, 430.000000)">
                <path d="M19.024,25.19 C19.024,25.509 18.763,25.77 18.473,25.77 L2.61,25.77 C2.291,25.77 2.03,25.509 2.03,25.19 L2.03,1.41 C2.03,1.091 2.291,0.83 2.61,0.83 L17.893,0.83 C18.212,0.83 18.473,1.091 18.473,1.41 L18.473,4.803 C18.473,5.122 18.212,5.354 17.893,5.354 L6.554,5.354 L6.554,11.038 L17.313,11.038 C17.632,11.038 17.893,11.27 17.893,11.589 L17.893,14.982 C17.893,15.301 17.632,15.562 17.313,15.562 L6.554,15.562 L6.554,21.217 L18.473,21.217 C18.763,21.217 19.024,21.478 19.024,21.797 L19.024,25.19 Z M39.788,4.745 C39.788,5.064 39.527,5.325 39.237,5.325 L29.899,5.325 L34.626,11.009 L36.25,11.009 C36.656,11.009 36.946,11.241 36.946,11.56 L36.946,14.953 C36.946,15.272 36.656,15.533 36.25,15.533 L27.318,15.533 L27.318,25.132 C27.318,25.451 27.086,25.741 26.767,25.741 L23.374,25.741 C23.055,25.741 22.794,25.451 22.794,25.132 L22.794,11.009 L28.71,11.009 L22.794,3.875 L22.794,1.41 C22.794,1.062 23.055,0.801 23.374,0.801 L39.237,0.801 C39.527,0.801 39.788,1.062 39.788,1.41 L39.788,4.745 Z M59.682,4.745 C59.682,5.064 59.421,5.325 59.131,5.325 L49.793,5.325 L54.52,11.009 L56.144,11.009 C56.55,11.009 56.84,11.241 56.84,11.56 L56.84,14.953 C56.84,15.272 56.55,15.533 56.144,15.533 L47.212,15.533 L47.212,25.132 C47.212,25.451 46.98,25.741 46.661,25.741 L43.268,25.741 C42.949,25.741 42.688,25.451 42.688,25.132 L42.688,11.009 L48.604,11.009 L42.688,3.875 L42.688,1.41 C42.688,1.062 42.949,0.801 43.268,0.801 L59.131,0.801 C59.421,0.801 59.682,1.062 59.682,1.41 L59.682,4.745 Z M71.659,5.325 L71.659,21.188 L75.458,21.188 C75.864,21.188 76.183,21.449 76.183,21.768 L76.183,25.161 C76.183,25.48 75.864,25.741 75.458,25.741 L63.162,25.741 C62.843,25.741 62.582,25.48 62.582,25.161 L62.582,21.768 C62.582,21.449 62.843,21.188 63.162,21.188 L67.106,21.188 L67.106,5.325 L63.162,5.325 C62.843,5.325 62.582,5.093 62.582,4.774 L62.582,1.381 C62.582,1.062 62.843,0.801 63.162,0.801 L75.458,0.801 C75.864,0.801 76.183,1.062 76.183,1.381 L76.183,4.774 C76.183,5.093 75.864,5.325 75.458,5.325 L71.659,5.325 Z M97.295,24.668 C98.049,24.32 98.774,23.914 99.47,23.421 L99.47,23.392 L99.499,23.392 C99.499,23.363 99.499,23.363 99.528,23.363 C99.76,23.16 99.789,22.783 99.557,22.551 L97.382,19.97 C97.208,19.738 96.86,19.68 96.628,19.825 C96.628,19.854 96.599,19.854 96.599,19.854 C93.293,22.087 88.74,21.507 86.101,18.404 C83.259,15.04 83.665,10.023 87,7.181 C89.639,4.948 93.351,4.716 96.164,6.369 C96.396,6.485 96.628,6.456 96.802,6.311 L99.528,4.02 C99.76,3.817 99.789,3.44 99.557,3.179 L99.499,3.121 L99.412,3.063 C94.859,-0.185 88.508,-0.069 84.071,3.701 C78.793,8.167 78.155,16.084 82.621,21.333 C86.304,25.683 92.336,26.872 97.295,24.668 Z M112.288,5.325 L112.288,21.188 L116.087,21.188 C116.493,21.188 116.812,21.449 116.812,21.768 L116.812,25.161 C116.812,25.48 116.493,25.741 116.087,25.741 L103.791,25.741 C103.472,25.741 103.211,25.48 103.211,25.161 L103.211,21.768 C103.211,21.449 103.472,21.188 103.791,21.188 L107.735,21.188 L107.735,5.325 L103.791,5.325 C103.472,5.325 103.211,5.093 103.211,4.774 L103.211,1.381 C103.211,1.062 103.472,0.801 103.791,0.801 L116.087,0.801 C116.493,0.801 116.812,1.062 116.812,1.381 L116.812,4.774 C116.812,5.093 116.493,5.325 116.087,5.325 L112.288,5.325 Z M137.576,25.19 C137.576,25.509 137.315,25.77 137.025,25.77 L121.162,25.77 C120.843,25.77 120.582,25.509 120.582,25.19 L120.582,1.41 C120.582,1.091 120.843,0.83 121.162,0.83 L136.445,0.83 C136.764,0.83 137.025,1.091 137.025,1.41 L137.025,4.803 C137.025,5.122 136.764,5.354 136.445,5.354 L125.106,5.354 L125.106,11.038 L135.865,11.038 C136.184,11.038 136.445,11.27 136.445,11.589 L136.445,14.982 C136.445,15.301 136.184,15.562 135.865,15.562 L125.106,15.562 L125.106,21.217 L137.025,21.217 C137.315,21.217 137.576,21.478 137.576,21.797 L137.576,25.19 Z M158.63,25.915 L146.16,12.314 L146.16,25.161 C146.16,25.48 145.928,25.741 145.609,25.741 L142.216,25.741 C141.897,25.741 141.636,25.48 141.636,25.161 L141.636,0.656 L154.106,14.257 L154.106,1.41 C154.106,1.091 154.367,0.83 154.657,0.83 L158.079,0.83 C158.369,0.83 158.63,1.091 158.63,1.41 L158.63,25.915 Z M180.032,24.668 C180.786,24.32 181.511,23.914 182.207,23.421 L182.207,23.392 L182.236,23.392 C182.236,23.363 182.236,23.363 182.265,23.363 C182.497,23.16 182.526,22.783 182.294,22.551 L180.119,19.97 C179.945,19.738 179.597,19.68 179.365,19.825 C179.365,19.854 179.336,19.854 179.336,19.854 C176.03,22.087 171.477,21.507 168.838,18.404 C165.996,15.04 166.402,10.023 169.737,7.181 C172.376,4.948 176.088,4.716 178.901,6.369 C179.133,6.485 179.365,6.456 179.539,6.311 L182.265,4.02 C182.497,3.817 182.526,3.44 182.294,3.179 L182.236,3.121 L182.149,3.063 C177.596,-0.185 171.245,-0.069 166.808,3.701 C161.53,8.167 160.892,16.084 165.358,21.333 C169.041,25.683 175.073,26.872 180.032,24.668 Z M203.551,1.41 C203.551,1.497 203.551,1.555 203.522,1.642 L203.464,1.729 L197.171,13.822 L196.214,15.707 L191.168,25.364 L191.139,25.451 C191.139,25.48 191.139,25.48 191.11,25.48 C191.023,25.625 190.849,25.741 190.646,25.741 L186.818,25.741 C186.499,25.741 186.267,25.48 186.267,25.132 C186.267,25.074 186.267,25.016 186.296,24.958 L186.383,24.784 L192.241,13.532 L186.296,1.7 C186.267,1.584 186.238,1.497 186.238,1.41 C186.238,1.352 186.238,1.265 186.267,1.207 L186.354,1.033 C186.47,0.888 186.615,0.801 186.818,0.801 L190.588,0.801 C190.791,0.801 190.994,0.917 191.081,1.091 L194.822,8.573 L198.65,1.178 C198.679,1.149 198.679,1.12 198.679,1.12 L198.737,1.033 C198.824,0.888 198.998,0.801 199.172,0.801 L203,0.801 C203.319,0.801 203.551,1.091 203.551,1.41 Z" id="Efficiency-Copy" fill="url(#linearGradient-1)"></path>
                <text id="tools-copy" font-family="FARRAY-Regular, FARRAY" font-size="14" font-weight="normal" fill="#FFFFFF">
                    <tspan x="0" y="41">tools</tspan>
                </text>
            </g>
        </g>
    </g>
</svg>