<?xml version="1.0" encoding="UTF-8" standalone="no"?>
<svg width="2947px" height="1046px" viewBox="0 0 2947 1046" version="1.1" xmlns="http://www.w3.org/2000/svg" xmlns:xlink="http://www.w3.org/1999/xlink">
    <!-- Generator: Sketch 41.1 (35376) - http://www.bohemiancoding.com/sketch -->
    <title>Group</title>
    <desc>Created with Sketch.</desc>
    <defs></defs>
    <g id="Page-1" stroke="none" stroke-width="1" fill="none" fill-rule="evenodd">
        <g id="Group" fill="#FFFFFF">
            <polyline id="Fill-1" points="956.653437 402.718603 856.751656 402.718603 856.751656 820.453591 1214.84432 820.453591 1214.84432 737.38473 956.653437 737.38473 956.653437 402.718603"></polyline>
            <path d="M1366.50085,609.180656 L1366.50085,599.544137 C1366.50085,588.107227 1373.12604,585.104116 1405.01995,585.104116 L1510.94196,585.104116 C1548.86347,585.104116 1565.71419,591.117717 1565.71419,621.215237 L1565.71419,658.536458 C1554.87631,639.270798 1539.83313,629.641658 1510.34436,629.641658 L1389.3718,629.641658 C1296.08783,629.641658 1269.0042,659.134129 1269.0042,708.497309 L1269.0042,744.60843 C1269.0042,796.377051 1308.1209,820.453591 1368.90599,820.453591 L1502.51659,820.453591 C1538.63056,820.453591 1548.86347,809.016681 1565.71419,786.740531 L1565.71419,820.453591 L1665.61597,820.453591 L1665.61597,627.833888 C1665.61597,570.051666 1633.11709,523.101305 1539.22816,523.101305 L1391.77693,523.101305 C1297.888,523.101305 1271.40934,560.422526 1271.40934,609.180656 L1366.50085,609.180656 Z M1414.05029,691.637089 L1516.96218,691.637089 C1553.67374,691.637089 1565.71419,701.273609 1565.71419,725.350149 C1565.71419,750.02436 1553.67374,758.450781 1516.96218,758.450781 L1414.05029,758.450781 C1377.93632,758.450781 1366.50085,749.42669 1366.50085,725.350149 C1366.50085,699.465839 1379.13889,691.637089 1414.05029,691.637089 L1414.05029,691.637089 Z" id="Fill-2"></path>
            <path d="M1828.67846,402.718603 L1728.77668,402.718603 L1728.77668,820.453591 L1828.67846,820.453591 L1828.67846,781.92965 C1828.67846,781.92965 1858.77221,820.453591 1914.74701,820.453591 L2003.81829,820.453591 C2092.88957,820.453591 2133.21622,772.30051 2133.21622,703.679049 L2133.21622,641.683617 C2133.21622,568.848946 2085.06918,523.101305 2003.81829,523.101305 L1914.74701,523.101305 C1851.54941,523.101305 1831.09098,563.433016 1828.67846,568.243897 L1828.67846,402.718603 Z M1897.29131,591.722766 L1964.70159,591.722766 C2015.25376,591.722766 2033.30706,613.393866 2033.30706,648.907317 L2033.30706,695.857678 C2033.30706,732.573849 2014.05119,751.83213 1964.70159,751.83213 L1897.29131,751.83213 C1854.55952,751.83213 1828.67846,726.552869 1828.67846,695.857678 L1828.67846,648.302268 C1828.67846,616.404356 1854.55952,591.722766 1897.29131,591.722766 L1897.29131,591.722766 Z" id="Fill-3"></path>
            <polygon id="Fill-4" points="2204.21945 667.567927 2449.77229 667.567927 2449.77229 584.499066 2204.21945 584.499066"></polygon>
            <polyline id="Fill-5" points="2520.1853 820.453591 2946.89081 820.453591 2946.89081 741.59794 2620.08708 741.59794 2620.08708 645.896827 2936.65791 645.896827 2936.65791 573.062156 2620.08708 573.062156 2620.08708 481.574253 2946.89081 481.574253 2946.89081 402.718603 2520.1853 402.718603 2520.1853 820.453591"></polyline>
            <path d="M112.464571,417.239789 C140.463039,387.599745 174.636664,362.512329 214.483759,343.674631 L215.656818,310.588757 L215.007578,77.2979256 C200.650524,72.2361705 190.255309,58.5340143 190.211042,42.5002041 L190.196287,38.0582557 C190.129887,17.693177 206.737147,0.995288125 227.084914,0.951016215 L490.477094,0.205772391 C510.817483,0.161500481 527.505898,16.7634669 527.572298,37.1137883 L527.579676,41.548358 C527.63132,57.5821682 517.302504,71.358111 502.982339,76.4862739 L503.653712,341.210162 C637.507786,395.480145 731.964806,526.775874 731.964806,680.111635 C731.964806,881.976789 568.27521,1045.67956 366.435394,1045.67956 C164.610335,1045.67956 0.920738102,881.976789 0.920738102,680.111635 C0.920738102,576.935948 43.7041685,483.721441 112.464571,417.239789 Z M461.025214,326.925092 L461.534277,327.072665 L460.74486,46.8388513 L473.080417,42.4264175 L244.725056,43.0757389 L257.082747,47.4217648 L257.886919,330.946457 L258.10825,330.880049 L258.10825,381.689445 C136.191336,425.983491 49.0751527,542.898228 49.0751527,680.111635 C49.0751527,855.37675 191.207035,997.519097 366.435394,997.519097 C541.678509,997.519097 683.810392,855.37675 683.810392,680.111635 C683.810392,537.784822 590.098522,417.313576 461.025214,377.048273 L461.025214,326.925092 L461.025214,326.925092 Z" id="Fill-6"></path>
            <path d="M444.838484,391.761305 C572.023094,426.21223 665.639054,542.492402 665.639054,680.57649 C665.639054,845.806638 531.637425,979.817711 366.45015,979.817711 C201.233364,979.817711 67.2538684,845.806638 67.2538684,680.57649 C67.2538684,542.492402 160.869828,426.21223 288.061816,391.739169 L288.061816,488.98242 C212.646706,519.884213 159.490193,594.039663 159.490193,680.57649 C159.490193,794.879184 252.161804,887.562429 366.45015,887.562429 C480.723741,887.562429 573.395351,794.879184 573.395351,680.57649 C573.395351,594.039663 520.253594,519.884213 444.838484,488.98242 L444.838484,391.761305" id="Fill-7"></path>
            <path d="M359.699531,309.349144 L373.186013,309.349144 C400.409821,309.349144 422.683174,331.632672 422.683174,358.852518 L422.683174,550.085035 C422.683174,577.31226 400.409821,599.58103 373.186013,599.58103 L359.699531,599.58103 C332.468346,599.58103 310.209748,577.31226 310.209748,550.085035 L310.209748,358.852518 C310.209748,331.625293 332.468346,309.349144 359.699531,309.349144" id="Fill-8"></path>
            <path d="M183.873576,717.84606 C213.627943,699.547004 272.229217,665.192002 353.708818,714.075569 C435.181041,762.951758 509.194384,745.014256 560.462198,697.532632 C552.442611,796.686954 469.575997,874.797361 368.309337,875.092507 C277.821533,875.343381 201.690783,813.362707 180.369156,729.467437 C361.831694,852.019463 464.396834,774.720708 464.396834,774.720708 C361.949737,817.56116 243.920884,750.275235 183.873576,717.84606" id="Fill-9"></path>
        </g>
    </g>
</svg>