<?xml version="1.0" encoding="UTF-8" standalone="no"?>
<svg width="2992px" height="840px" viewBox="0 0 2992 840" version="1.1" xmlns="http://www.w3.org/2000/svg" xmlns:xlink="http://www.w3.org/1999/xlink">
    <!-- Generator: Sketch 41.1 (35376) - http://www.bohemiancoding.com/sketch -->
    <title>Vector-01</title>
    <desc>Created with Sketch.</desc>
    <defs></defs>
    <g id="Page-1" stroke="none" stroke-width="1" fill="none" fill-rule="evenodd">
        <g id="Vector-01" fill="#FFFFFF">
            <polyline id="Fill-1" points="1007.81 178.676 1402.36 178.676 1402.36 260.6 1098.45 260.6 1098.45 361.144 1370.37 361.144 1370.37 443.068 1098.45 443.068 1098.45 670.223 1007.81 670.223 1007.81 178.676"></polyline>
            <polygon id="Fill-2" points="1434.34 670.223 1519.65 670.223 1519.65 178.676 1434.34 178.676"></polygon>
            <path d="M1556.97,312.734 L1642.28,312.734 L1642.28,577.126 C1642.28,599.47 1655.61,599.47 1668.94,599.47 L1775.57,599.47 C1788.9,599.47 1802.23,599.47 1802.23,577.126 L1802.23,312.734 L1887.54,312.734 L1887.54,584.574 C1887.54,670.223 1834.22,670.223 1780.9,670.223 L1663.6,670.223 C1610.29,670.223 1556.97,670.223 1556.97,584.574 L1556.97,312.734" id="Fill-3"></path>
            <path d="M2170.11,446.793 L2170.11,405.831 C2170.11,383.487 2156.78,383.487 2143.45,383.487 L2036.82,383.487 C2023.49,383.487 2010.16,383.487 2010.16,405.831 L2010.16,446.793 L2170.11,446.793 Z M1924.85,398.383 C1924.85,312.734 1978.17,312.734 2031.49,312.734 L2148.78,312.734 C2202.1,312.734 2255.42,312.734 2255.42,398.383 L2255.42,517.545 L2010.16,517.545 L2010.16,577.126 C2010.16,599.47 2023.49,599.47 2036.82,599.47 L2244.75,599.47 L2244.75,670.223 L2031.49,670.223 C1978.17,670.223 1924.85,670.223 1924.85,584.574 L1924.85,398.383 L1924.85,398.383 Z" id="Fill-4"></path>
            <path d="M2292.73,312.734 L2516.66,312.734 C2569.98,312.734 2623.3,312.734 2623.3,398.383 L2623.3,670.223 L2537.99,670.223 L2537.99,405.831 C2537.99,383.487 2524.66,383.487 2511.33,383.487 L2378.04,383.487 L2378.04,670.223 L2292.73,670.223 L2292.73,312.734" id="Fill-5"></path>
            <path d="M2660.61,599.47 L2879.21,599.47 C2892.54,599.47 2905.87,599.47 2905.87,577.126 L2905.87,539.888 C2905.87,517.545 2892.54,517.545 2879.21,517.545 L2767.25,517.545 C2713.93,517.545 2660.61,517.545 2660.61,431.897 L2660.61,398.383 C2660.61,312.734 2713.93,312.734 2767.25,312.734 L2969.85,312.734 L2969.85,383.487 L2772.58,383.487 C2759.25,383.487 2745.92,383.487 2745.92,405.831 L2745.92,424.449 C2745.92,446.793 2759.25,446.793 2772.58,446.793 L2884.55,446.793 C2937.86,446.793 2991.18,446.793 2991.18,532.441 L2991.18,584.574 C2991.18,670.223 2937.86,670.223 2884.55,670.223 L2660.61,670.223 L2660.61,599.47" id="Fill-6"></path>
            <path d="M334.737,9.77 C427.405,-10.378 526.137,4.207 610.886,45.955 C664.011,73.57 710.019,113.513 748.158,159.471 C773.117,190.294 795.018,224.223 807.548,262.112 C680.75,311.779 554.203,362.047 427.204,411.062 C426.904,354.73 426.653,298.448 427.455,242.165 C284.57,296.192 143.238,354.529 0.954,410.21 C0.603,315.237 38.993,222.62 99.134,150.049 C158.022,77.328 244.125,29.867 334.737,9.77" id="Fill-7"></path>
            <path d="M27.566,570.938 C156.318,520.87 284.369,468.998 412.971,418.53 C413.472,476.315 413.121,534.151 413.172,591.987 C555.756,535.604 696.587,474.712 839.172,418.229 C840.776,519.868 801.133,619.251 736.18,696.633 C684.859,752.113 620.959,797.469 548.138,819.772 C439.734,853.651 317.497,843.127 217.462,788.749 C130.809,741.438 63.751,662.452 27.566,570.938" id="Fill-8"></path>
        </g>
    </g>
</svg>